<?xml version="1.0" standalone="no"?>
<!DOCTYPE svg PUBLIC "-//W3C//DTD SVG 20010904//EN"
 "http://www.w3.org/TR/2001/REC-SVG-20010904/DTD/svg10.dtd">
<svg version="1.0" xmlns="http://www.w3.org/2000/svg"
 width="700.000000pt" height="700.000000pt" viewBox="0 0 700.000000 700.000000"
 preserveAspectRatio="xMidYMid meet">
<metadata>
Created by potrace 1.14, written by Peter Selinger 2001-2017
</metadata>
<g transform="translate(0.000000,700.000000) scale(0.100000,-0.100000)"
fill="#000000" stroke="none">
<path d="M2465 5581 c-131 -32 -269 -111 -353 -200 -79 -85 -151 -183 -194
-267 -26 -49 -46 -91 -46 -94 1 -3 -6 -27 -15 -55 -9 -27 -20 -63 -24 -80 -4
-16 -9 -628 -10 -1359 l-3 -1329 21 -43 c26 -54 77 -100 126 -113 21 -6 136
-11 261 -11 l222 0 -210 -315 -210 -315 243 0 244 0 70 103 70 102 844 2 844
2 69 -105 69 -104 244 0 243 0 -210 315 -210 315 222 0 c133 0 239 5 263 11
52 15 119 82 134 134 14 52 15 2578 1 2677 -23 156 -108 337 -215 455 -143
158 -246 226 -417 273 -68 19 -107 19 -1037 19 -883 0 -972 -2 -1036 -18z
m2023 -432 c57 -28 146 -111 173 -160 9 -19 -14 -19 -1166 -19 l-1176 0 19 28
c52 72 107 123 164 151 l61 31 932 0 932 0 61 -31z m272 -914 l0 -315 -1260 0
-1260 0 0 315 0 315 1260 0 1260 0 0 -315z m0 -1260 l0 -525 -1260 0 -1260 0
0 525 0 525 1260 0 1260 0 0 -525z"/>
<path d="M2654 3269 c-191 -72 -263 -313 -143 -479 85 -117 248 -161 381 -102
59 26 133 99 161 159 30 65 30 188 0 254 -67 151 -247 226 -399 168z"/>
<path d="M4133 3272 c-135 -48 -215 -166 -209 -308 5 -122 68 -219 174 -271
48 -24 70 -28 137 -28 67 0 89 5 137 28 64 32 120 90 151 157 30 64 30 187 1
251 -69 148 -242 224 -391 171z"/>
</g>
</svg>
