<svg xmlns="http://www.w3.org/2000/svg" xml:space="preserve" viewBox="39.64 188.38 500.88 283.24">
    <path fill="red" d="M378.665 296.733c.077 0 .137.006.2.011 9.102-10.142 18.202-20.285 27.304-30.426v-37.891l-28.075-31.288c-.133-.148-.13-.307-.039-.461a1.805 1.805 0 0 1-.552.109h-47.551c-9.294 10.356-18.588 20.714-27.881 31.072v37.892l27.952 31.15c.255-.102.507-.167.712-.167l47.93-.001zm-59.226-58.902h68.5v20.413h-68.5v-20.413zM483.35 430.19h-67.011c2.89-13.373 6.034-26.69 9.584-39.893h47.825c1.865 7.179 3.617 14.375 5.342 21.53 1.471 6.107 2.888 12.23 4.26 18.363zm-139.849-41.5c-.247 0-.546.089-.836.223.064-.251.132-.502.197-.754h47.146l.141.531h-46.648zm56.668 41.5h-67.324a1282.355 1282.355 0 0 1 3.925-17.179c1.78-7.546 3.593-15.142 5.538-22.717.021 0 .035.003.057.003h48.202c1.866 7.179 3.618 14.375 5.343 21.53 1.471 6.107 2.887 12.23 4.259 18.363zM95.525 468.499l5.943-2.985c-1.889 1.273-3.873 2.296-5.943 2.985zm319.155-12.851a37.607 37.607 0 0 0-3.436-.681c.928-4.727 1.876-9.451 2.85-14.17h71.563a833.226 833.226 0 0 1 2.754 13.513 81.555 81.555 0 0 0-3.798-.074c-10.639.037-21.138 1.995-31.723 2.791-12.65.951-25.199-1.699-37.846-1.439a1.535 1.535 0 0 0-.364.06zm12.002-66.958c-.104 0-.22.02-.338.047.052-.193.107-.385.16-.578h46.685l.142.531h-46.649zm-24.549 50.5h-71.237l.077-.364h71.083l.077.364zm-53.744-70.419v-.185c2.957-9.595 6.299-19.05 10.26-28.214h14.891c.156 0 .344-.041.539-.105 4.219 9.713 7.744 19.745 10.853 29.923h-36.91c-.042 0-.087.006-.131.011.099-.325.201-.648.301-.972.119-.138.197-.29.197-.458zm59.957 85.846c-.055-.284-.115-.566-.171-.85l.468-.066-.185.926-.112-.01zm-79.709 1.198c-.368.02-.744.044-1.122.072a800.646 800.646 0 0 1 3.042-15.089h71.92c.96 4.534 1.893 9.072 2.775 13.619-12.887-.59-25.662 2.095-38.481 2.864-12.691.761-25.382-2.155-38.134-1.466zm139.474-85.625H431.7c3.072-10.031 6.425-19.98 10.133-29.818h15.435l.034-.003c4.199 9.682 7.712 19.678 10.809 29.821zM423.58 470.324c-.002.017.004.029.004.045H309.461c.009-.044.02-.087.018-.133-.584-13.479 16.915-13.202 26.38-13.014 10.4.207 20.838 2.205 31.239 1.487 11.498-.793 22.859-2.821 34.416-2.82 3.651 0 7.895.269 11.685 1.289.101.102.3.165.617.175 5.898 1.742 10.525 5.426 9.764 12.971zm-315.771-10.296a51.352 51.352 0 0 1 2.424-3.249 28.51 28.51 0 0 1-1.106 1.794l-.006.005c-.429.494-.867.978-1.312 1.45zm101.872-59.603c.53 14.561 6.132 28.832 5.284 43.398-.734 12.612-16.948 12.407-26.147 14.099-12.188 2.242-26.312 5.202-31.397-9.316-4.67-13.333-4.187-28.313-4.81-42.278 19.202-.193 38.217-2.215 57.07-5.903zm297.069 69.861c-.003.03.004.054.005.083h-80.579c.165-.133.275-.284.291-.445.651-6.463-2.386-10.268-6.842-12.5 8.312.291 16.576 1.386 24.901 1.579 10.423.241 20.765-1.75 31.117-2.64 10.593-.912 32.596-2.001 31.107 13.923zM229.812 442.38c-1.264-11.917-2.47-23.89-4.379-35.724-4.982-30.874-16.116-59.719-26.656-88.982-3.014-.134-6.078-.046-9.202.116l-.145.018c2.352 12.376 8.692 23.511 13.038 35.236 2.389 6.444 4.075 13.106 6.42 19.563.289.794-.554 1.394-1.415 1.491-8.63 2.761-17.832 4.224-26.761 5.599-10.654 1.641-21.534 2.992-32.338 2.473-.144.75-2.882 1.128-2.884.714-.116-21.838-4.607-43.028-14.454-62.552-2.319 1.015-4.764 1.81-7.167 2.524 10.881 17.251 12.083 38.797 13.354 58.679.479 7.491.766 15.501-1.943 22.646-2.525 6.66-6.895 11.935-12.181 16.481-.854 1-1.584 1.663-2.11 1.833l-.2.065-.194.155c-.236.185-.721.308-1.211.354a154.045 154.045 0 0 1-.421 8.399c-.373 4.638-.851 9.522-1.93 14.221-.305 1.597-.689 3.049-1.176 4.24-.969 2.942-2.249 5.752-3.992 8.305-.007.01-.018.019-.026.028a.366.366 0 0 1-.083.147c-5.089 5.847-11.671 10.192-18.538 11.715h138.958c-.112-9.244-1.391-18.568-2.364-27.744zm-13.84 7.648c-5.149 9.3-21.24 9.083-30.202 10.772-9.97 1.878-24.631 3.752-29.784-7.652-6.515-14.42-5.615-31.932-6.354-47.398-.056-1.172 1.992-1.625 2.704-.801 19.287-.1 38.372-2.092 57.3-5.764l-.004-.101c-.02-1.407 2.924-1.782 2.947-.18.151 10.678 2.926 20.888 4.396 31.399.893 6.395 2.285 13.787-1.003 19.725zm-26.068-211.321a208.913 208.913 0 0 0-3.532-9.603c2.446-.458 4.889-.923 7.322-1.409 5.828-1.164 12.01-2.38 17.974-1.727 1.822.199 4.997 1.092 5.114 3.397.088 1.736-2.765 2.881-3.977 3.461-6.76 3.236-14.856 4.558-22.228 5.64-.25.036-.474.125-.673.241zm-28.557-6.875c-14.692 2.881-29.16 7.298-43.602 11.271a35.128 35.128 0 0 1-.178-8.23c.121-.112.146-.212.027-.283 1.494-14.154 11.633-26.023 25.967-30.254 18.637-5.503 34.393 5.998 39.355 23.562-7.175 1.438-14.387 2.525-21.569 3.934z"/>
    <path fill="red" d="M539.06 279.747c.012-.145-.129-.257-.51-.3-40.612-4.573-81.244-8.967-121.883-13.296a9.294 9.294 0 0 1-.14 1.658l13.579 1.453c-7.405 5.455-14.994 10.605-21.53 17.123l-6.832-.706a28.334 28.334 0 0 1-1.493 1.85c45.821 4.735 91.628 9.604 137.374 15.025 1.283.152 3.018-1.664 1.061-1.896a6016.894 6016.894 0 0 0-16.415-1.915c5.876-6.237 11.191-13.155 17.959-18.461.805-.632-.233-.693-1.17-.535zm-127.525 6.944c6.357-6.207 13.711-11.14 20.839-16.404.352-.26.501-.507.521-.729 9.085.974 18.17 1.951 27.255 2.935-7.374 5.432-14.929 10.565-21.446 17.045-9.057-.956-18.112-1.906-27.169-2.847zm30.121 3.161c6.344-6.176 13.671-11.095 20.774-16.342.343-.253.493-.495.519-.712 7.435.805 14.868 1.612 22.302 2.426-7.354 5.417-14.89 10.539-21.39 17.002-7.4-.799-14.802-1.59-22.205-2.374zm53.084 5.758a8450.848 8450.848 0 0 0-27.931-3.065c6.342-6.175 13.667-11.092 20.769-16.338.322-.238.476-.466.514-.673 9.037.99 18.072 1.997 27.106 3.001-7.144 5.321-14.167 10.721-20.449 17.065l-.009.01zm25.274 2.87a7005.846 7005.846 0 0 0-22.349-2.542c6.151-6.123 13.015-11.335 19.97-16.509.269-.2.416-.392.482-.571 6.211.691 12.424 1.373 18.634 2.072.069.008.152.002.241-.009-6.297 5.182-11.42 11.617-16.978 17.559zm19.356 171.889h-29.905a.73.73 0 0 0 .193-.408c1.048-11.2-8.776-14.555-18.151-15.439-2.81-14.563-6.063-29.05-9.52-43.471-5.805-24.222-11.958-48.912-21.936-71.809-.238-.547-1.103-.579-1.834-.354h-16.344c-.706-.267-2.331.124-2.624.895-12.322 32.482-20.778 66.17-27.824 100.137-.326.297-.461.604-.16.764-.896 4.335-1.768 8.675-2.623 13.016l-.185.926-.112-.01c-.055-.284-.115-.566-.171-.85-2.776-14.308-5.972-28.544-9.368-42.716-5.805-24.222-11.958-48.912-21.936-71.809-.243-.558-1.138-.58-1.878-.339a2.904 2.904 0 0 0-.284-.015h-14.82v-33.761h20.869c.224 0 .504-.079.782-.197.487.282 2.249.023 2.683-.46 10.26-11.433 20.518-22.867 30.778-34.299.683-.176 1.332-.55 1.332-1.045v-27.223c1.289-.271 2.577-.541 3.866-.81.382.038.822-.064 1.198-.25 17.7-3.697 35.403-7.381 53.109-11.05.438.081.944-.043 1.35-.28 20.64-4.276 41.279-8.545 61.92-12.813 1.252-.259 2.467-1.775.461-1.36l-7.36 1.522a.369.369 0 0 0-.091-.107c-7.289-5.956-15.555-10.336-23.617-15.121 7.408-1.496 14.682-3.556 22.08-5.065.056.12.163.235.339.341a411.604 411.604 0 0 1 7.321 4.483c1.016.638 3.598-.764 2.25-1.611a388.081 388.081 0 0 0-6.342-3.883 96.147 96.147 0 0 1 4.802-.728c1.209-.148 2.559-1.394.52-1.143a110.4 110.4 0 0 0-7.036 1.124c-.193.037-.389.068-.582.105-8.136 1.573-16.119 3.837-24.249 5.511-11.491 2.366-22.939 4.951-34.4 7.473-19.677 4.33-39.365 8.601-59.064 12.829a282916.08 282916.08 0 0 0-28.572-31.842c-.334-.373-1.29-.242-1.994.075.579-.424.8-.921-.32-.921h-54.438c-.535 0-1.389.436-1.767.839-.666.055-1.433.265-1.698.562l-32 35.662c-.132.147-.153.26-.104.347-.001.012-.006.022-.006.034v20.382c-7.4 1.486-14.801 2.965-22.205 4.431a33416.61 33416.61 0 0 1-78.642-8.384c-.185-.587-.37-1.174-.562-1.76 8.344-1.228 17.369-2.768 24.898-6.685 2.119-1.103 5.625-3.648 3.871-6.443-2.36-3.758-7.717-3.711-11.63-3.607-7.31.195-14.654 2.006-21.774 3.546-2.563-9.468-7.801-17.74-16.702-22.428-7.669-4.039-16.879-4.099-25.118-2.049-15.479 3.853-27.202 16.296-29.235 31.412l-62.861-6.741c-.618-.066-3.332 1.026-1.88 1.182l23.471 2.517c-7.21 5.391-14.265 10.968-20.667 17.31l-3.646-.391c-1.496-.16-2.927 2.014-.972 2.224l68.684 7.365a39.122 39.122 0 0 0 1.201 3.911l.071.879s.234.397.61.89c.355.838.743 1.671 1.169 2.499.097.188.277.307.502.37-1.858 4.446-.763 11.076 3.861 13.332l-62.986 13.197c-1.799.377-1.313 2.058.452 1.688l7.966-1.669a.18.18 0 0 0 .089.12c7.75 4.657 15.368 9.495 22.413 15.171l-26.543 5.562c-1.788.375-1.334 1.928.418 1.561l74.773-15.667c-1.414 4.927-2.975 9.816-4.325 14.765-3.505 3.807-8.701 5.808-14.022 7.334-.508-.02-1.152.162-1.591.445-3.225.875-6.437 1.629-9.287 2.554-7.404 2.402-15.724 5.234-21.769 10.321-9.225 7.763-15.955 21.469-17.683 33.741-4.374-1.972-9.099-4.007-13.793-4.921.179-.282-.023-.501-.989-.372-.301.04-.574.061-.847.081-.703-.09-1.404-.16-2.101-.188a1.536 1.536 0 0 0-.375.04c-6.733-1.715 3.405-15.192 1.233-20.24-.157-.365-.908-.253-1.191-.192-6.296 1.354-10.292 6.035-12.815 11.761-3.381 7.675-1.703 14.069 4.022 19.851 3.699 3.735 8.474 6.52 13.087 8.951 3.352 1.767 6.885 2.712 7.499 6.906 1.342 9.173-.688 19.192-1.893 28.265-1.034 7.779-2.763 15.836-2.618 23.715.144 7.813 4.486 15.385 9.78 20.872 3.927 4.069 8.292 6.324 12.764 7.136H41.932c-.648 0-3.315 1.25-1.861 1.25h497.438c.647-.006 3.315-1.256 1.861-1.256zM55.812 248.821c6.268-6.125 13.163-11.512 20.186-16.749.263-.196.409-.385.478-.562l22.212 2.382c-7.21 5.392-14.264 10.969-20.666 17.31l-22.21-2.381zm25.148 2.697c6.268-6.126 13.163-11.512 20.185-16.75.263-.196.409-.385.477-.561l13.033 1.397a35.779 35.779 0 0 0 .335 9.277c.027.162.15.271.331.334.048.049.113.087.176.126-.001.014-.006.026-.006.04.006.744.032 1.48.062 2.215a136.27 136.27 0 0 0-7.421 6.834l-27.172-2.912zm30.004 3.217a126.633 126.633 0 0 1 4.756-4.453c.146 1.703.373 3.38.689 5.037l-5.445-.584zm330.869 85.637h15.435l.034-.003c4.199 9.682 7.712 19.678 10.81 29.821h-36.411c3.071-10.031 6.424-19.98 10.132-29.818zm-15.329 47.787a606.958 606.958 0 0 1 4.707-16.362h37.387a492.19 492.19 0 0 1 4.591 16.362l.142.531h-46.648c-.104 0-.22.02-.338.047.051-.193.106-.385.159-.578zm-.581 2.138h47.825c1.865 7.179 3.617 14.375 5.342 21.53a1155.044 1155.044 0 0 1 4.26 18.362h-67.011c2.89-13.372 6.034-26.689 9.584-39.892zm-9.933 41.5h67.722a925.704 925.704 0 0 1 1.602 7.393h-70.885c.512-2.466 1.033-4.93 1.561-7.393zm-1.896 9h71.563a833.226 833.226 0 0 1 2.754 13.513 81.555 81.555 0 0 0-3.798-.074c-10.639.037-21.138 1.995-31.723 2.791-12.65.951-25.199-1.699-37.846-1.439a1.49 1.49 0 0 0-.365.061 37.607 37.607 0 0 0-3.436-.681c.929-4.727 1.877-9.451 2.851-14.171zm-8.842 13.62c-12.887-.59-25.662 2.095-38.481 2.864-12.69.762-25.382-2.154-38.134-1.465-.368.02-.744.044-1.122.072a800.646 800.646 0 0 1 3.042-15.089h71.92c.96 4.532 1.892 9.071 2.775 13.618zm-3.196-15.591.077.364h-71.237l.077-.364c.498-2.344 1-4.688 1.515-7.028h68.044c.519 2.34 1.022 4.683 1.524 7.028zm-6.147-26.998a1144.174 1144.174 0 0 1 4.26 18.362h-67.324a1282.355 1282.355 0 0 1 3.925-17.179c1.78-7.546 3.593-15.142 5.538-22.717.021 0 .035.003.057.003h48.202c1.866 7.179 3.618 14.375 5.342 21.531zm-5.901-23.669.141.531h-46.647c-.247 0-.546.089-.836.223.064-.251.132-.502.197-.754a481.987 481.987 0 0 1 4.545-16.362h38.01a495.985 495.985 0 0 1 4.59 16.362zm-16.469-47.787c.156 0 .344-.041.539-.105 4.219 9.713 7.744 19.745 10.853 29.923h-36.91c-.042 0-.087.006-.131.011.099-.325.201-.648.301-.972.12-.138.198-.29.198-.458v-.185c2.957-9.595 6.299-19.05 10.26-28.214h14.89zm-16.549-1.555c-.383.139-.707.367-.842.676-2.888 6.627-5.439 13.409-7.76 20.283v-54.648h8.602v33.689zm59.343-98.179v-2.259a73.894 73.894 0 0 1 2.349 1.768l-2.349.491zm87.64-38.388c.299-.052.594-.118.893-.172-.382.289-.521.631-.064.902 7.785 4.622 15.767 8.858 22.847 14.549l-26.439 5.468a.96.96 0 0 0-.223-.259c-7.151-5.844-15.254-10.155-23.167-14.84 8.69-2.021 17.39-4.111 26.153-5.648zm-34.532 7.552c1.828-.401 3.655-.817 5.482-1.237-.104.243-.038.493.314.703 7.727 4.587 15.637 8.806 22.689 14.408-7.157 1.481-14.313 2.966-21.471 4.448a1.152 1.152 0 0 0-.25-.285c-7.008-5.727-14.927-9.983-22.688-14.56 5.309-1.16 10.618-2.311 15.924-3.477zm-19.356 4.227c.035.182.162.358.421.512 7.672 4.554 15.525 8.747 22.539 14.291-8.772 1.818-17.546 3.638-26.317 5.462-7.047-5.727-15.003-9.989-22.791-14.59 8.718-1.883 17.434-3.774 26.148-5.675zm-36.605 7.705c.096.048.174.106.243.167l6.989-1.504c7.791 4.624 15.769 8.874 22.861 14.551-7.181 1.494-14.359 2.997-21.539 4.497a1.131 1.131 0 0 0-.15-.153c-1.793-1.464-3.657-2.813-5.552-4.112v-10.133c0-.126-.08-.215-.206-.278-.931-1.038-1.861-2.076-2.793-3.113.051.024.097.052.147.078zm-86.899-31.843h54.177c.27 0 .621-.113.952-.274-.269.223-.381.475-.177.702l31.901 35.552v43.078c-10.379 11.565-20.755 23.132-31.135 34.697a2.334 2.334 0 0 0-.38-.029h-54.438c-.243 0-.554.091-.854.227-10.608-11.82-21.215-23.642-31.822-35.463v-43.077c10.591-11.804 21.183-23.61 31.776-35.413zm-34.674 79.165v.847c0 .295.408.407.918.376l4.146 4.621c-6.864-.714-13.728-1.432-20.591-2.156 4.868-4.786 10.125-9.114 15.526-13.271l.001 9.583zm0-21.824v1.183a54.971 54.971 0 0 1-1.583-.863l1.583-.32zm-4.653.934c-.062.069-.08.126-.027.158 1.527.893 3.102 1.695 4.68 2.49v2.163c-6.27-.66-12.539-1.319-18.808-1.981 4.72-.937 9.437-1.886 14.155-2.83zm-20.074 3.931c.103.01.229.009.397-.011l24.33 2.565v2.07c-6.448 4.894-12.726 9.989-18.469 15.711-9.043-.955-18.085-1.921-27.126-2.899 6.337-6.233 13.328-11.696 20.448-17.005.199-.148.336-.293.42-.431zm-6.363 21.007-1.87.384c-.035-.036-.063-.073-.104-.108-.228-.19-.464-.371-.693-.56.889.096 1.778.19 2.667.284zm-63.302 6.402c-.433-.311-1.411-.105-2.094.228.092-.287.184-.573.266-.876 1.094-4.073 1.131-8.478.676-12.858 3.552.407 7.104.806 10.657 1.207 6.542 4.016 12.932 8.239 18.901 13.075-7.222 1.478-14.446 2.941-21.67 4.411a126.445 126.445 0 0 0-6.736-5.187zm3.487 5.845c-4.156.844-8.312 1.692-12.468 2.534 2.952-1.519 5.156-3.648 6.514-7.105a127.263 127.263 0 0 1 5.954 4.571zm11.436-17.532a8613.124 8613.124 0 0 0 40.856 4.478c.061.132.163.262.321.385.634.496 1.254 1.009 1.878 1.517-8.784 1.811-17.569 3.62-26.355 5.419-5.289-4.333-10.92-8.169-16.7-11.799zm29.601-18.438c7.387.784 14.774 1.566 22.161 2.347-7.272 5.441-14.385 11.07-20.825 17.489a8286.529 8286.529 0 0 1-22.159-2.432c6.323-6.21 13.294-11.658 20.395-16.954.209-.155.345-.306.428-.45zm-3.026-.32c-7.237 5.415-14.314 11.018-20.727 17.401a7156.067 7156.067 0 0 1-22.172-2.506 89.42 89.42 0 0 0-.851-5.065c.232-.075.423-.16.523-.251 4.987-4.508 10.354-8.511 15.746-12.515 9.16.98 18.321 1.962 27.481 2.936zm-29.37-3.14a1.397 1.397 0 0 0-.353.164c-4.886 3.628-9.743 7.27-14.339 11.254a242.75 242.75 0 0 0-.759-3.52 135.682 135.682 0 0 0-2.592-9.832c6.015.649 12.029 1.29 18.043 1.934zm-15.949-18.226c5.828-1.164 12.01-2.38 17.974-1.727 1.822.199 4.997 1.092 5.114 3.397.088 1.736-2.765 2.881-3.977 3.461-6.76 3.236-14.856 4.558-22.228 5.64a1.87 1.87 0 0 0-.673.241 208.913 208.913 0 0 0-3.532-9.603c2.446-.458 4.889-.923 7.322-1.409zm-75.949 15.408a35.128 35.128 0 0 1-.178-8.23c.121-.112.146-.212.027-.283 1.494-14.154 11.633-26.023 25.967-30.254 18.637-5.503 34.393 5.998 39.355 23.562-7.175 1.439-14.387 2.526-21.569 3.935-14.692 2.88-29.16 7.297-43.602 11.27zm-22.246 64.315c-7.047-5.74-14.686-10.615-22.463-15.299l21.53-4.511c.036.095.119.188.261.273 7.676 4.614 15.22 9.408 22.201 15.026l-21.529 4.511zm24.772-5.19c-7.042-5.738-14.673-10.617-22.444-15.303l28.192-5.907c3.637 6.217 9.916 10.617 15.444 15.019.113.09.248.148.394.185-.14.524-.278 1.048-.423 1.571l-21.163 4.435zm26.608-15.95a.348.348 0 0 0-.014-.178c.004-.049-.012-.093-.067-.126-.033-.02-.062-.044-.095-.064l-.023-.017c-2.991-1.854-4.71-4.708-6.291-7.788-.296-.577-1.547-.209-1.975-.033-3.05 1.26-5.993 1.59-8.5 1.097-.188-.354-.702-.604-1.49-.439l-.054.011c-3.854-1.428-6.247-5.177-5.495-10.978.509-3.927 2.772-6.205 5.666-7.172 3.557-.483 7.524.152 7.524.152l3.246 1.21a13.015 13.015 0 0 1 2.77 2.059c.598.591 3.289-.473 2.717-1.038-.175-.173-.374-.322-.559-.485.01-.01.024-.02.032-.031 5.987-7.586 11.517-16.123 8.391-26.09-.068-.217-.305-.326-.614-.356 10.314-2.544 20.854-4.413 31.34-6.352a191.848 191.848 0 0 1 4.703 13.328c-.329.287-.383.554.195.639.975 3.159 1.886 6.338 2.677 9.552 2.155 8.759 4.289 19.233 1.095 27.984-2.701 7.402-11.146 4.967-15.665 9.92-5.283 5.792-4.004 14.722-3.925 21.929-9.88 5.658-23.079 4.488-32.042-2.455 2.337-8.05 5.035-15.994 6.453-24.279zm-7.754 28.542c.23-.256.307-.467.281-.638.103-.381.214-.76.319-1.14 9.73 6.275 23.059 6.589 33.297 1.256 2.762 4.033 8.95 3.921 13.484 3.664a.982.982 0 0 0-.016.42c2.315 12.429 8.628 23.704 13.08 35.438 2.318 6.109 3.918 12.444 6.084 18.601-7.587 2.295-15.58 3.599-23.367 4.87-11.126 1.817-22.638 3.325-33.939 2.659-.395-21.269-4.971-41.893-14.673-60.917 2.034-1.125 3.899-2.486 5.45-4.213zM81.317 467.567c-6.204-2.886-10.859-8.621-13.882-14.598-6.377-12.611-1.192-28.589.424-41.814.798-6.535 1.552-13.171 1.201-19.762-.353-6.608-5.493-7.579-10.654-10.454-6.424-3.578-14.902-9.173-15.898-17.082-.811-6.44 3.442-17.126 10.149-19.486 2.015 6.552-8.818 19.041-.071 20.299.012.249.256.439.865.464 6.213.254 12.754 3.319 18.534 5.974l-.004.035c-.066.755.842.922 1.662.721.218.099.438.199.653.295 3.045 1.362 6.066 2.814 8.948 4.498 5.323 3.109 4.565 7.943 3.13 12.917-5.246 18.189 10.268 33.179 11.615 50.808.084 1.101 2.992.451 2.897-.776-.777-10.165-5.456-18.548-9.346-27.743-1.448-3.423-2.472-6.957-3.027-10.583 9.413 3.197 23.331 6.543 31.932-.06.807.23 2.416-.286 2.436-.929.436-14.241-.931-28.449-.995-42.686-.003-.788-2.902-.269-2.897.776.063 14.032 1.418 28.041 1.009 42.077-.63.017-1.414.182-1.694.401-7.201 5.643-20.473 1.587-28.163-1.08-.364-.126-1.17.082-1.786.37a40.704 40.704 0 0 1-.32-4.594c-.051-4.529 2.56-8.627 2.455-13.188-.157-6.867-9.973-9.957-15.041-12.223l-.45-.203c1.399-13.031 8.714-28.467 19.45-35.843 7.535-5.177 17.328-7.727 25.998-10.25l.547-.158c10.574 16.57 11.553 36.8 13.127 55.893.63 7.638.944 15.368-1.05 22.837-2.094 7.842-7.496 13.935-13.648 18.94.108-6.083-.023-12.173-.037-18.256-.001-.437-2.899-.028-2.897.776.02 9.013.231 18.009-.329 27.013-.537 8.626-1.542 18.205-5.929 25.885a28.51 28.51 0 0 1-1.106 1.794l-.006.005c-.429.493-.867.977-1.313 1.449-1.967 2.091-4.087 3.965-6.341 5.485-1.89 1.274-3.874 2.296-5.943 2.985-4.385 1.463-9.153 1.421-14.205-.929zm10.662 2.802c.415-.071.828-.153 1.241-.245 6.866-1.523 13.449-5.868 18.538-11.715a.355.355 0 0 0 .083-.147c.008-.01.019-.018.026-.028 1.743-2.553 3.023-5.362 3.992-8.305a47.85 47.85 0 0 0 1.176-4.24c1.079-4.698 1.557-9.583 1.93-14.221.225-2.797.349-5.597.421-8.399.49-.046.975-.17 1.211-.354.065-.051.128-.104.194-.155a67.95 67.95 0 0 0 2.31-1.898c5.287-4.546 9.656-9.821 12.181-16.481 2.709-7.145 2.422-15.155 1.943-22.646-1.271-19.881-2.474-41.427-13.354-58.679 2.402-.714 4.847-1.509 7.167-2.524 9.847 19.524 14.338 40.714 14.454 62.552.002.414 2.74.037 2.884-.714 10.804.52 21.684-.832 32.338-2.473 8.929-1.375 18.131-2.838 26.761-5.599.861-.098 1.703-.697 1.415-1.491-2.345-6.457-4.031-13.118-6.42-19.563-4.346-11.725-10.686-22.859-13.038-35.236l-.002-.011.147-.007c3.124-.162 6.188-.25 9.202-.116 10.54 29.263 21.674 58.108 26.656 88.982 1.91 11.834 3.116 23.808 4.379 35.724.973 9.176 2.253 18.5 2.366 27.744.001.082.005.164.006.245H91.979zm157.409-95.264a476.257 476.257 0 0 0-1.31-4.09c.25-.176.436-.396.49-.655l7.09-34.337a.564.564 0 0 0 .056-.371.556.556 0 0 0-.162-.428c-3.957-9.539-10.833-17.916-13.606-27.934-.897-3.242 1.138-6.468 3.46-2.015 1.34 2.569 1.576 5.091 3.545 7.326 1.334 1.513 3.316 2.452 5.066 3.37 3.223 1.689 3.982 5.292 5.607 8.326.579 1.08 3.4.163 2.897-.776-1.253-2.339-2.107-6.194-4.341-7.871-1.507-1.131-3.082-1.906-4.521-2.836.017-.028.034-.056.042-.085 1.171-4.792 1.928-9.609 2.809-14.455.398-2.191.758-4.385 1.41-6.518.09-.293.203-.568.328-.839.162.126.369.263.645.412.46.634.871 1.299 1.232 1.994.075.132.238.196.449.213-.456 4.076.347 8.852-.435 12.133-.183.77 2.681.317 2.869-.47 1.035-4.343.243-9.022.885-13.439.133-.918.388-1.798.717-2.663.184-.459.445-.871.785-1.234.107-.125.191-.229.265-.323a.682.682 0 0 0 .013.477c.625 1.398.695 3.211.635 4.992-.928 4.194-.191 9.346-.183 12.813.001.491 2.899.065 2.897-.776-.007-2.898-.247-5.829-.121-8.729a.514.514 0 0 0 .121-.307c.013-.676.067-1.451.117-2.271.108-.778.243-1.555.444-2.324.295-1.125 2.075-5.185 3.055-2.962.896 2.032.414 4.929.044 7.006a.211.211 0 0 0 .013.121c-1.098 3.295-1.395 7.132-1.456 10.242-.008.384 2.882.016 2.897-.776.081-4.053.743-8.257 2.24-12.03.956-2.409 1.878-1.471 2.298.62.525 2.618-.436 5.666-1.047 8.174-2.75 11.271-4.55 22.435-4.92 33.984a.604.604 0 0 0-.088.302c.01.791.016 1.585.025 2.377-.003.284-.018.564-.02.848 0 .023.012.042.029.06.188 17.566.065 35.315-1.674 52.781-1.087 10.924-3.634 22.756-11.847 30.61-8.417 8.049-22.09 10.482-28.641-.86a613.442 613.442 0 0 0-1.878-14.178c-.947-6.488-2.203-12.886-3.674-19.222 9.119-.5 22.28-3.029 24.351-12.913.108-.152.153-.319.098-.494zm-24.721 12.255c-5.611-23.699-14.34-46.496-22.625-69.448 4.899.52 9.674 1.789 14.366 4.48 8.902 5.106 14.591 16.09 18.973 24.909 4.545 9.147 8.035 18.825 11.102 28.555-1.785 9.434-13.605 11.234-21.816 11.504zm9.999 83.009c.107-.075.198-.157.268-.245a.612.612 0 0 0 .15-.388c-.077-8.941-1.315-17.954-2.239-26.834a1361.99 1361.99 0 0 0-1.705-15.589c5.274 4.889 12.706 5.146 19.993 2.518 10.633-3.835 16.98-13.152 20.092-23.583 3.986-13.364 3.728-28.148 4.091-41.96.233-8.894.314-17.797.226-26.694.127-10.084 1.277-19.871 3.35-29.756 1.03-4.914 4.147-11.51 2.259-16.464-.719-1.887-3.286-1.734-5.047-.859.028-1.566-.224-3.065-1.159-3.871-1.375-1.184-3.394-.296-4.755.483-.5.286-.926.632-1.321 1.002-.174-.628-.419-1.207-.773-1.701-.97-1.355-3.768.255-4.619.92-1.025.802-1.701 1.841-2.161 3.019-1.743-1.628-3.998-2.192-5.724.646-1.46 2.402-1.58 5.952-2.099 8.662-.723 3.769-1.323 7.538-2.129 11.285a9.124 9.124 0 0 1-1.543-2.182c-2.107-4.143-3.85-11.313-9.629-6.512-3.831 3.181.35 10.176 1.911 13.405 3.355 6.938 7.725 13.406 10.646 20.55l-6.221 30.132c-5.118-15.012-11.75-30.364-22.813-41.548-5.91-5.975-14.4-8.313-22.593-8.973-.238-.116-.593-.131-.968-.075a64.295 64.295 0 0 0-1.567-.084c-6.181-.254-19.757 3.913-23.18-3.037-.1-7.227-1.44-16.954 4.767-21.265h.001a19233.545 19233.545 0 0 0 86.385-17.658c10.794 1.146 21.591 2.268 32.388 3.389l25.059 27.925c.296.33 1.077.264 1.741.027.129.047.313.075.573.075h19.336a.67.67 0 0 0-.165.419v63.241c-4.256 13.888-7.716 28.059-11.076 42.071-3.604 15.024-6.945 30.133-9.834 45.312-8.569 1.061-18.023 4.4-18.006 14.197h-71.91zm188.918 0H309.461c.009-.044.02-.087.018-.133-.584-13.479 16.915-13.202 26.38-13.014 10.4.207 20.838 2.205 31.239 1.487 11.498-.793 22.859-2.821 34.416-2.82 3.651 0 7.895.269 11.685 1.289.101.102.3.165.617.175 5.898 1.743 10.525 5.427 9.765 12.972-.003.015.003.028.003.044zm83.171 0h-80.579c.165-.133.275-.284.291-.445.651-6.463-2.386-10.268-6.842-12.5 8.312.291 16.576 1.386 24.901 1.579 10.423.241 20.765-1.75 31.117-2.64 10.593-.911 32.596-2 31.106 13.924-.002.029.005.053.006.082zM171.388 279.105c.274.967-2.62 1.756-2.897.776-.913-3.225-3.549-4.517-6.757-4.114-2.012.252-.967-1.375.411-1.548 4.025-.505 8.033.612 9.243 4.886zm-7.624-24.258c.661 1.325 1.117 2.545 1.146 4.045.026 1.343-2.91 1.762-2.94.204-.021-1.058-.387-2.021-.854-2.955-.326-.653.052-1.229.674-1.532.496-.243 1.65-.409 1.974.238zm-25.778 11.835c.595 1.404-.022 2.616-1.106 3.54-1.126.96-2 1.401-1.493 3.049.384 1.244-2.508 2.04-2.897.776-.344-1.114-.311-2.17.385-3.136.551-.765 1.382-1.168 2.02-1.831 1.661-1.729-1.508-2.764-2.842-1.813-1.104.787-3.499-.071-1.894-1.216 1.969-1.405 6.62-2.219 7.827.631zm74.592 132.221c-.023-1.603-2.967-1.227-2.947.18 0 .034.003.067.004.101-18.928 3.672-38.013 5.664-57.3 5.764-.712-.824-2.76-.371-2.704.801.739 15.466-.161 32.978 6.354 47.398 5.153 11.405 19.814 9.53 29.784 7.652 8.962-1.688 25.053-1.472 30.202-10.772 3.288-5.938 1.896-13.33 1.002-19.726-1.469-10.51-4.244-20.72-4.395-31.398zm2.387 44.92c-.734 12.612-16.948 12.407-26.147 14.099-12.188 2.242-26.312 5.202-31.397-9.316-4.67-13.333-4.187-28.313-4.81-42.278 19.203-.193 38.218-2.216 57.07-5.904.53 14.562 6.132 28.833 5.284 43.399zm-58.793-194.286c-.145.031-1.396.186-1.163-.291.256-.523 1.204-.69 1.697-.796 1.786-.387 2.922-2.013 3.303-3.704.163-.724 3.008-1.167 2.859-.506-.721 3.203-3.742 4.658-6.696 5.297zm19.819-9.655c-.227-.619 2.63-1.506 2.897-.776.592 1.617 2.164 2.396 3.737 2.811.647.17-.09.673-.343.797-.572.278-1.39.527-2.029.358-1.777-.468-3.592-1.359-4.262-3.19zm-3 11c-.239-.389 2.454-1.5 2.897-.776 2.632 4.288 7.416 7.458 9.423 12.117 1.805 4.189-.714 6.798-4.261 8.816-.529.301-3.457.613-2.221-.09 10.323-5.873-2.147-14.053-5.838-20.067zm11.885.384c-.399 1.354-.042 2.686.921 3.707.576.611-2.143 1.65-2.716 1.042-1.126-1.194-1.546-2.706-1.079-4.293.242-.819 3.101-1.227 2.874-.456zm114.297-22.888v38.809c0 .28.37.393.844.377 9.143 10.188 18.284 20.377 27.428 30.565.28.313.998.27 1.639.063.122.032.278.052.49.052h47.93c.203 0 .452-.065.704-.165.597.203 2.17-.052 2.576-.505l27.051-30.145c.646-.186 1.233-.548 1.233-1.02V227.6c0-.126-.08-.215-.206-.278l-28.066-31.278c-.264-.294-.916-.274-1.525-.098.326-.348.3-.672-.604-.672h-47.93c-.506 0-1.299.389-1.703.773-.635.069-1.327.273-1.576.552-9.392 10.465-18.782 20.931-28.173 31.397-.132.146-.152.259-.104.346-.003.013-.008.024-.008.036zm78.33-31.591c.161 0 .354-.042.552-.109-.091.155-.094.313.039.461l28.075 31.288v37.891l-27.304 30.426c-.063-.004-.123-.011-.2-.011h-47.93c-.205 0-.457.066-.712.167l-27.952-31.15v-37.892l27.881-31.072 47.551.001zm10.436 41.044h-68.5v20.413h68.5v-20.413zm-2 18.413h-64.5v-16.413h64.5v16.413z"/>
  </svg>